<svg width="409" height="174" viewBox="0 0 409 174" fill="none" xmlns="http://www.w3.org/2000/svg">
<ellipse cx="69.2018" cy="103.165" rx="69.2018" ry="70.835" fill="white"/>
<path d="M22.34 11.894L19.282 12.048C18.1087 12.1067 17.038 12.2387 16.07 12.444C16.026 12.0627 15.872 11.6227 15.608 11.124C16.7813 11.0653 18.2553 10.3907 20.03 9.1C17.874 9.1 16.422 9.13667 15.674 9.21C15.762 8.87267 15.806 8.38867 15.806 7.758V3.908C15.806 3.30667 15.762 2.79333 15.674 2.368C16.2607 2.42667 18.6587 2.456 22.868 2.456C27.0773 2.456 29.4827 2.42667 30.084 2.368C30.0107 2.94 29.974 3.45333 29.974 3.908V7.758C29.974 8.35933 30.0107 8.84333 30.084 9.21C29.0573 9.13667 26.3073 9.1 21.834 9.1C20.9687 9.716 19.9493 10.3833 18.776 11.102L24.32 11.036C25.376 10.552 26.2267 10.002 26.872 9.386C27.224 9.85533 27.6493 10.2147 28.148 10.464C28.28 10.5373 28.346 10.6253 28.346 10.728C28.346 10.8893 28.236 10.97 28.016 10.97C27.3413 10.97 26.542 11.19 25.618 11.63C24.7087 12.07 22.3693 13.0087 18.6 14.446L27.994 14.094C27.466 13.654 26.916 13.236 26.344 12.84L27.224 11.96C28.764 13.1187 30.2747 14.402 31.756 15.81L30.788 16.668C30.1573 16.0373 29.556 15.458 28.984 14.93L23.814 15.194V19.748C23.814 20.3787 23.5427 20.7673 23 20.914C22.4573 21.0753 21.636 21.1487 20.536 21.134C20.58 20.5913 20.404 20.1147 20.008 19.704C20.6827 19.7773 21.2107 19.814 21.592 19.814C21.988 19.814 22.2447 19.7407 22.362 19.594C22.4793 19.462 22.538 19.1907 22.538 18.78V15.26C17.874 15.48 15.278 15.6707 14.75 15.832C14.8087 15.2893 14.7207 14.7833 14.486 14.314C16.0553 14.2407 18.6733 13.434 22.34 11.894ZM23.594 5.36H28.676V3.468H23.594V5.36ZM22.34 3.468H17.104V5.36H22.34V3.468ZM23.594 6.372V8.154H28.676V6.372H23.594ZM22.34 8.154V6.372H17.104V8.154H22.34ZM32.482 19L31.646 20.144C29.886 18.9413 28.082 17.966 26.234 17.218L26.872 16.118C28.7053 16.954 30.5753 17.9147 32.482 19ZM18.622 16.14C18.974 16.5947 19.2893 16.888 19.568 17.02C19.7587 17.108 19.854 17.2107 19.854 17.328C19.854 17.4307 19.7 17.4967 19.392 17.526C19.2013 17.5407 18.5927 17.9 17.566 18.604C16.5393 19.2933 15.4173 19.9753 14.2 20.65C14.0827 20.1073 13.7307 19.704 13.144 19.44C15.2707 18.7067 17.0967 17.6067 18.622 16.14ZM49.026 8.132C51.5193 8.11733 53.492 8.05133 54.944 7.934V9.452C53.7707 9.33467 51.798 9.26867 49.026 9.254V17.262C49.026 18.3767 49.0847 19.6967 49.202 21.222H47.508C47.6253 19.4033 47.684 18.0833 47.684 17.262V9.254C45.0733 9.254 43.0493 9.32 41.612 9.452V7.934C43.108 8.05133 45.132 8.11733 47.684 8.132V4.414C47.684 2.88867 47.596 1.76667 47.42 1.048C48.1093 1.18 48.652 1.246 49.048 1.246C49.4587 1.246 49.664 1.29 49.664 1.378C49.664 1.466 49.554 1.56867 49.334 1.686C49.1287 1.80333 49.026 2.346 49.026 3.314V8.132ZM41.37 5.338L40.248 6.284C39.236 4.89067 37.9527 3.556 36.398 2.28L37.388 1.378C38.8107 2.58067 40.138 3.90067 41.37 5.338ZM39.742 10.574V17.724C40.9007 16.8587 41.986 15.8613 42.998 14.732C43.1153 15.2453 43.328 15.6927 43.636 16.074L40.358 18.824C39.654 19.4107 39.0747 19.9607 38.62 20.474C38.356 19.9753 38.004 19.5647 37.564 19.242C37.8867 18.8753 38.1067 18.538 38.224 18.23C38.356 17.9073 38.422 17.4307 38.422 16.8V9.188C37.2487 9.188 36.486 9.20267 36.134 9.232C35.7967 9.26133 35.408 9.35667 34.968 9.518V7.934C35.5547 8.00733 36.3907 8.044 37.476 8.044C38.5613 8.044 39.4413 8.00733 40.116 7.934C39.8667 8.55 39.742 9.43 39.742 10.574ZM69.024 2.676C68.3787 3.54133 67.264 4.58267 65.68 5.8C66.2813 5.888 67.4693 5.932 69.244 5.932C71.0187 5.932 72.1773 5.888 72.72 5.8V7.054C72.1773 6.966 71.004 6.922 69.2 6.922C67.396 6.922 66.2007 6.966 65.614 7.054V5.866C64.646 6.614 63.7293 7.252 62.864 7.78C62.6 7.26667 62.182 6.90733 61.61 6.702C63.1207 6.27667 64.6313 5.36 66.142 3.952C67.6527 2.52933 68.452 1.444 68.54 0.696C69.1853 1.048 69.6473 1.25333 69.926 1.312C70.2193 1.37067 70.366 1.48067 70.366 1.642C70.366 1.78867 70.2487 1.884 70.014 1.928C69.9113 1.94267 69.8013 1.98667 69.684 2.06C70.212 2.60267 70.9527 3.21133 71.906 3.886C72.8593 4.546 73.886 5.08867 74.986 5.514C76.1007 5.93933 76.7533 6.15933 76.944 6.174C76.2987 6.482 75.888 6.95867 75.712 7.604C75.272 7.41333 74.37 6.856 73.006 5.932C71.642 4.99333 70.7107 4.304 70.212 3.864C69.7133 3.424 69.3173 3.028 69.024 2.676ZM61.83 5.052L60.818 5.976C59.9967 4.93467 58.7867 3.93733 57.188 2.984L58.046 2.148C59.2487 2.86667 60.51 3.83467 61.83 5.052ZM73.556 7.956C73.908 8.044 74.1867 8.09533 74.392 8.11C74.612 8.11 74.8247 8.11 75.03 8.11C75.25 8.11 75.36 8.176 75.36 8.308C75.36 8.42533 75.2793 8.528 75.118 8.616C74.9567 8.704 74.876 8.89467 74.876 9.188V16.206C74.876 16.7487 74.81 17.1373 74.678 17.372C74.5607 17.592 74.2967 17.746 73.886 17.834C73.49 17.922 72.808 17.9807 71.84 18.01C71.8547 17.878 71.862 17.7607 71.862 17.658C71.862 17.262 71.6493 16.8807 71.224 16.514C71.9133 16.646 72.4267 16.712 72.764 16.712C73.116 16.712 73.3653 16.6533 73.512 16.536C73.6587 16.404 73.732 16.1693 73.732 15.832V11.564C73.732 10.068 73.6733 8.86533 73.556 7.956ZM64.36 14.028V17.24H63.062C63.15 16.2867 63.194 15.4727 63.194 14.798V10.596C63.194 9.232 63.172 8.418 63.128 8.154C63.6413 8.242 64.6753 8.286 66.23 8.286C67.7847 8.286 68.804 8.242 69.288 8.154L69.222 10.508V15.744C69.222 16.58 69.002 17.0933 68.562 17.284C68.1367 17.4747 67.396 17.5627 66.34 17.548C66.3693 17.416 66.384 17.2913 66.384 17.174C66.384 16.778 66.186 16.4187 65.79 16.096C66.3767 16.2133 66.8313 16.272 67.154 16.272C67.4913 16.272 67.7333 16.2133 67.88 16.096C68.0267 15.9787 68.1 15.7807 68.1 15.502V14.028H64.36ZM64.36 10.772H68.1V9.21H64.36V10.772ZM68.1 11.608H64.36V13.126H68.1V11.608ZM59.784 17.394V9.826C58.376 9.826 57.4227 9.85533 56.924 9.914V8.506C57.6133 8.60867 58.3247 8.66 59.058 8.66C59.806 8.66 60.532 8.60867 61.236 8.506C61.1187 9.00467 61.06 9.87733 61.06 11.124V17.306C61.544 17.3793 62.226 17.6287 63.106 18.054C64.734 18.8313 67.0953 19.22 70.19 19.22C72.1847 19.22 74.4873 19.0587 77.098 18.736C76.702 19.22 76.504 19.7627 76.504 20.364C74.6413 20.452 72.8007 20.496 70.982 20.496C69.178 20.496 67.5427 20.3787 66.076 20.144C64.624 19.924 63.3407 19.506 62.226 18.89C61.6833 18.5967 61.236 18.45 60.884 18.45C60.5467 18.45 60.1507 18.604 59.696 18.912C59.256 19.2053 58.6693 19.6967 57.936 20.386C57.584 19.858 57.254 19.462 56.946 19.198C58.5007 18.1713 59.4467 17.57 59.784 17.394ZM70.586 9.21C70.85 9.298 71.3487 9.342 72.082 9.342C72.2433 9.342 72.324 9.39333 72.324 9.496C72.324 9.584 72.2433 9.67933 72.082 9.782C71.9353 9.87 71.862 10.0607 71.862 10.354V13.192C71.862 14.0427 71.9133 14.7687 72.016 15.37H70.608C70.7107 14.5927 70.762 13.8667 70.762 13.192V11.542C70.762 10.574 70.7033 9.79667 70.586 9.21ZM88.824 1.884V3.38H83.192L82.4 7.692C83.104 7.48667 83.764 7.384 84.38 7.384C85.7587 7.384 86.91 7.87533 87.834 8.858C88.758 9.826 89.22 11.0727 89.22 12.598C89.22 14.1233 88.714 15.4213 87.702 16.492C86.7047 17.548 85.3773 18.076 83.72 18.076C82.4587 18.076 81.3807 17.702 80.486 16.954C79.606 16.1913 79.078 15.1573 78.902 13.852H80.508C80.6987 14.732 81.0947 15.4067 81.696 15.876C82.2973 16.3453 82.994 16.58 83.786 16.58C84.8273 16.58 85.722 16.1913 86.47 15.414C87.2327 14.6367 87.614 13.6687 87.614 12.51C87.614 11.454 87.284 10.5887 86.624 9.914C85.964 9.22467 85.0987 8.88 84.028 8.88C82.972 8.88 81.7987 9.15867 80.508 9.716L81.982 1.884H88.824ZM96.1876 18.076C94.4863 18.076 93.1736 17.3793 92.2496 15.986C91.3403 14.578 90.8856 12.51 90.8856 9.782C90.8856 7.054 91.3403 4.99333 92.2496 3.6C93.1736 2.192 94.479 1.488 96.1656 1.488C97.8523 1.488 99.187 2.20667 100.17 3.644C101.167 5.06667 101.666 7.11267 101.666 9.782C101.666 12.4513 101.167 14.5047 100.17 15.942C99.1723 17.3647 97.845 18.076 96.1876 18.076ZM96.2316 2.984C95.0143 2.984 94.0683 3.57067 93.3936 4.744C92.719 5.91733 92.3816 7.61133 92.3816 9.826C92.3816 14.3727 93.665 16.646 96.2316 16.646C97.4783 16.646 98.4463 16.052 99.1356 14.864C99.8396 13.6613 100.192 11.9673 100.192 9.782C100.192 7.59667 99.8323 5.91733 99.1136 4.744C98.395 3.57067 97.4343 2.984 96.2316 2.984ZM108.369 18.076C106.668 18.076 105.355 17.3793 104.431 15.986C103.522 14.578 103.067 12.51 103.067 9.782C103.067 7.054 103.522 4.99333 104.431 3.6C105.355 2.192 106.661 1.488 108.347 1.488C110.034 1.488 111.369 2.20667 112.351 3.644C113.349 5.06667 113.847 7.11267 113.847 9.782C113.847 12.4513 113.349 14.5047 112.351 15.942C111.354 17.3647 110.027 18.076 108.369 18.076ZM108.413 2.984C107.196 2.984 106.25 3.57067 105.575 4.744C104.901 5.91733 104.563 7.61133 104.563 9.826C104.563 14.3727 105.847 16.646 108.413 16.646C109.66 16.646 110.628 16.052 111.317 14.864C112.021 13.6613 112.373 11.9673 112.373 9.782C112.373 7.59667 112.014 5.91733 111.295 4.744C110.577 3.57067 109.616 2.984 108.413 2.984ZM120.551 18.076C118.85 18.076 117.537 17.3793 116.613 15.986C115.704 14.578 115.249 12.51 115.249 9.782C115.249 7.054 115.704 4.99333 116.613 3.6C117.537 2.192 118.842 1.488 120.529 1.488C122.216 1.488 123.55 2.20667 124.533 3.644C125.53 5.06667 126.029 7.11267 126.029 9.782C126.029 12.4513 125.53 14.5047 124.533 15.942C123.536 17.3647 122.208 18.076 120.551 18.076ZM120.595 2.984C119.378 2.984 118.432 3.57067 117.757 4.744C117.082 5.91733 116.745 7.61133 116.745 9.826C116.745 14.3727 118.028 16.646 120.595 16.646C121.842 16.646 122.81 16.052 123.499 14.864C124.203 13.6613 124.555 11.9673 124.555 9.782C124.555 7.59667 124.196 5.91733 123.477 4.744C122.758 3.57067 121.798 2.984 120.595 2.984ZM131.149 10.64C131.134 13.2213 131.002 15.2307 130.753 16.668C130.503 18.1053 130.049 19.4547 129.389 20.716C128.978 20.2613 128.457 19.9753 127.827 19.858C128.575 18.802 129.095 17.5627 129.389 16.14C129.697 14.7027 129.851 12.9647 129.851 10.926C129.851 8.88733 129.807 6.834 129.719 4.766C130.716 4.91267 133.752 4.986 138.827 4.986C138.695 3.006 138.555 1.686 138.409 1.026C138.981 1.17267 139.531 1.25333 140.059 1.268C140.323 1.28267 140.455 1.34867 140.455 1.466C140.455 1.58333 140.389 1.708 140.257 1.84C140.139 1.972 140.081 2.33867 140.081 2.94C140.081 3.54133 140.103 4.22333 140.147 4.986C143.784 4.986 145.969 4.92 146.703 4.788V6.328C145.529 6.22533 143.373 6.174 140.235 6.174C140.396 8.84333 140.814 11.2267 141.489 13.324C142.647 11.5787 143.439 9.606 143.865 7.406C144.422 7.758 144.877 7.978 145.229 8.066C145.595 8.154 145.779 8.264 145.779 8.396C145.779 8.528 145.647 8.66 145.383 8.792C145.133 8.90933 144.525 10.068 143.557 12.268C143.219 13.0307 142.713 13.8887 142.039 14.842C142.596 16.2207 143.205 17.2987 143.865 18.076C144.525 18.8533 144.965 19.242 145.185 19.242C145.419 19.242 145.603 19.0367 145.735 18.626C145.867 18.2007 145.991 17.5847 146.109 16.778C146.446 17.2033 146.923 17.504 147.539 17.68C147.216 18.824 146.893 19.6747 146.571 20.232C146.248 20.7893 145.896 21.068 145.515 21.068C145.001 21.068 144.275 20.562 143.337 19.55C142.398 18.538 141.643 17.4233 141.071 16.206C139.604 18.054 138.101 19.6233 136.561 20.914C136.209 20.4593 135.732 20.1147 135.131 19.88C136.949 18.8093 138.746 17.1007 140.521 14.754C139.641 12.0553 139.098 9.19533 138.893 6.174H131.127C131.141 6.95133 131.149 8.066 131.149 9.518H133.811C135.145 9.518 136.194 9.44467 136.957 9.298L136.517 16.47C136.473 17.2327 136.223 17.7827 135.769 18.12C135.329 18.4427 134.632 18.604 133.679 18.604C133.312 18.604 132.901 18.582 132.447 18.538C132.447 17.966 132.3 17.416 132.007 16.888C132.989 17.0933 133.679 17.196 134.075 17.196C134.485 17.196 134.779 17.1373 134.955 17.02C135.131 16.888 135.233 16.602 135.263 16.162L135.637 10.64H131.149ZM145.383 3.82L144.305 4.788C143.747 3.952 142.875 3.05733 141.687 2.104L142.721 1.224C143.806 2.104 144.693 2.96933 145.383 3.82ZM161.421 3.534L160.343 4.48C159.683 3.62933 158.597 2.72 157.087 1.752L157.923 0.783998C159.096 1.576 160.262 2.49267 161.421 3.534ZM169.187 6.02C167.119 5.91733 164.009 5.866 159.859 5.866C155.708 5.866 152.606 5.91733 150.553 6.02V4.612C152.606 4.71467 155.708 4.766 159.859 4.766C164.009 4.766 167.119 4.71467 169.187 4.612V6.02ZM156.163 6.416C156.617 6.812 156.962 7.06867 157.197 7.186C157.446 7.28867 157.571 7.39867 157.571 7.516C157.571 7.63333 157.424 7.72867 157.131 7.802C156.837 7.86067 156.265 8.352 155.415 9.276C154.564 10.2 153.552 11.1533 152.379 12.136C152.085 11.7107 151.667 11.3733 151.125 11.124C153.075 10.0533 154.755 8.484 156.163 6.416ZM168.241 10.816L167.207 11.718C165.799 10.222 164.127 8.77733 162.191 7.384L162.917 6.46C164.721 7.736 166.495 9.188 168.241 10.816ZM160.013 15.282C161.582 13.962 162.902 12.1213 163.973 9.76L165.117 10.42C163.738 12.972 162.367 14.8493 161.003 16.052C163.041 17.504 165.821 18.626 169.341 19.418C168.93 19.814 168.637 20.2833 168.461 20.826C164.662 19.5353 161.846 18.2153 160.013 16.866C158.297 18.1713 155.422 19.616 151.389 21.2C151.125 20.6133 150.751 20.1513 150.267 19.814C154.139 18.6993 157.057 17.4453 159.023 16.052C157.629 14.8493 156.273 13.17 154.953 11.014L156.009 10.354C157.226 12.4367 158.561 14.0793 160.013 15.282ZM178.295 5.052L177.283 6.13C176.329 4.942 175.061 3.81267 173.477 2.742L174.357 1.708C175.911 2.86667 177.224 3.98133 178.295 5.052ZM188.481 9.518V3.886H183.069C181.573 3.886 180.377 3.98867 179.483 4.194V2.456C180.143 2.64667 181.829 2.742 184.543 2.742C187.271 2.742 189.06 2.64667 189.911 2.456C189.837 2.92533 189.801 3.58533 189.801 4.436V8.572C189.801 9.59867 189.837 10.772 189.911 12.092H188.481V10.618H182.211V17.966C182.211 18.274 182.291 18.516 182.453 18.692C182.614 18.868 182.944 18.9927 183.443 19.066C183.956 19.154 184.814 19.198 186.017 19.198C187.234 19.198 188.143 19.132 188.745 19C189.361 18.8533 189.786 18.582 190.021 18.186C190.27 17.79 190.461 17.13 190.593 16.206C191.091 16.9393 191.561 17.3573 192.001 17.46C191.678 18.428 191.348 19.11 191.011 19.506C190.673 19.902 190.167 20.1587 189.493 20.276C188.833 20.408 187.696 20.474 186.083 20.474C184.484 20.474 183.318 20.4153 182.585 20.298C181.851 20.1807 181.375 19.9827 181.155 19.704C180.949 19.44 180.847 19 180.847 18.384V11.322C180.847 10.398 180.81 9.75267 180.737 9.386C181.147 9.474 182.167 9.518 183.795 9.518H188.481ZM176.403 10.332V17.35L179.153 14.468C179.343 15.084 179.585 15.5313 179.879 15.81L177.679 17.856C176.755 18.7213 176.095 19.55 175.699 20.342C175.317 19.8287 174.863 19.44 174.335 19.176C174.833 18.5893 175.083 17.8413 175.083 16.932V8.946C173.865 8.946 172.875 9.012 172.113 9.144V7.692C172.743 7.76533 173.499 7.802 174.379 7.802C175.259 7.802 176.029 7.76533 176.689 7.692C176.498 8.29333 176.403 9.17333 176.403 10.332ZM208.655 5.734V3.556C202.231 3.556 198.183 3.62933 196.511 3.776V2.346C197.801 2.478 200.016 2.544 203.155 2.544C206.308 2.544 208.662 2.478 210.217 2.346C210.085 3.06467 210.019 3.93 210.019 4.942V8.924C211.485 8.924 212.622 8.86533 213.429 8.748V10.178C212.637 10.046 209.645 9.98 204.453 9.98V12.62C204.893 13.1333 205.369 13.61 205.883 14.05C208.2 12.5247 209.623 11.3513 210.151 10.53C210.532 11.0873 210.84 11.454 211.075 11.63C211.324 11.7913 211.449 11.916 211.449 12.004C211.449 12.092 211.412 12.158 211.339 12.202C211.28 12.2313 211.199 12.246 211.097 12.246H210.833C210.583 12.246 210.209 12.422 209.711 12.774C209.212 13.126 208.207 13.7787 206.697 14.732C208.911 16.492 211.361 17.7753 214.045 18.582C213.634 18.9487 213.267 19.44 212.945 20.056C210.803 19 209.087 18.0173 207.797 17.108C206.521 16.1987 205.406 15.1867 204.453 14.072V18.34C204.453 19.132 204.372 19.704 204.211 20.056C204.064 20.408 203.727 20.672 203.199 20.848C202.685 21.024 201.813 21.1707 200.581 21.288C200.493 20.628 200.236 20.0853 199.811 19.66C200.339 19.704 200.83 19.726 201.285 19.726C201.754 19.726 202.128 19.66 202.407 19.528C202.685 19.4107 202.869 19.22 202.957 18.956C203.045 18.692 203.089 18.296 203.089 17.768V9.98C198.131 9.98 195.103 10.046 194.003 10.178V8.748C195.968 8.88 197.838 8.946 199.613 8.946H208.655V6.79C202.568 6.79 198.777 6.84867 197.281 6.966V5.558C198.41 5.67533 202.201 5.734 208.655 5.734ZM195.565 11.982L196.115 10.948C197.435 11.5347 198.828 12.334 200.295 13.346L199.459 14.446C198.271 13.478 196.973 12.6567 195.565 11.982ZM201.769 13.544C201.871 14.028 202.047 14.4387 202.297 14.776C200.361 15.92 197.816 17.5187 194.663 19.572C194.384 18.9707 194.061 18.4793 193.695 18.098C196.437 17.174 199.129 15.656 201.769 13.544Z" fill="white"/>
<path d="M110.102 95.9141C108.711 93.3516 105.617 90.4766 102.625 87.6953C100.891 86.0859 99.2578 84.5703 98.2812 83.3984C96.6719 81.4766 94.3906 80.375 92.0156 80.375C90.625 80.375 89.2578 80.7656 88.0625 81.5L87.9922 81.5469L86.0156 82.9609C85.1562 82.4766 84.0703 81.6719 83.0859 80.9297C80.5547 79.0391 77.9297 77.0781 75.1875 77.0781H73.875C69.6953 77.0781 67.4531 78.3047 65.6562 79.2891C64.4531 79.9453 63.6562 80.3828 62.375 80.3828C61.4375 80.3828 60.2812 80.1562 58.8672 79.6953C56.7969 79.0156 56.0937 78.6953 54.6953 78.0625C54.1875 77.8281 53.6016 77.5625 52.8437 77.2344C51.8594 76.8047 50.8125 76.5781 49.7344 76.5781C47.4687 76.5781 45.3281 77.5625 43.8516 79.2891L43.8203 79.3281L32.8203 93.25C30.3516 96.1797 30.4062 100.516 32.9453 103.383L35.6172 106.617C36 107.078 36.0703 107.719 35.7969 108.25C35.1875 109.469 34.6562 110.875 34.6562 112.336V113.07C34.6562 114.977 35.3437 116.602 36.6953 117.914C37.7031 118.898 38.8906 119.492 39.7656 119.93C40 120.047 40.3047 120.203 40.4609 120.297C40.7812 120.711 41.0312 121.109 41.2734 121.492C42.4844 123.414 43.6484 124.813 47.4141 125.078C47.9766 126.031 48.7031 127.055 49.7578 127.867C50.9297 128.766 52.3437 129.289 54.0859 129.469C55.6641 131.711 57.875 132.844 60.6797 132.844C61.8437 132.844 63.0156 132.336 64.1562 131.664C64.4453 131.492 64.7344 131.313 65.0234 131.133C65.0312 131.125 65.0391 131.125 65.0469 131.117C66.0312 131.477 67.5156 132.023 69.4219 132.023H70.1562C75.3125 132.023 86.2187 126.008 88.1484 124.82C88.9062 124.359 89.875 123.852 90.8984 123.32C93.1016 122.172 95.6016 120.875 97.6484 119.156C100.344 116.906 101.703 114.336 101.703 111.516C101.703 111.063 101.922 110.641 102.289 110.375C104.414 108.852 107.133 106.383 108.727 104.836C111.125 102.516 111.687 98.8438 110.102 95.9141ZM61.9453 125.695C61.7578 126.398 61.5312 127.047 61.3516 127.516C61.0234 127.695 60.7812 127.805 60.6172 127.844C59.2656 127.828 58.6484 127.297 58.1016 126.461C57.3672 125.336 56.1406 124.609 54.8203 124.516C53.0234 124.383 52.4844 123.875 51.5469 122.203C50.8437 120.953 49.5781 120.172 48.1406 120.117C46.7969 120.063 46.3516 119.859 46.2187 119.781C46.0547 119.672 45.8516 119.367 45.5234 118.844C45.2109 118.344 44.8203 117.727 44.2578 117.023C43.6719 116.297 42.8672 115.891 42.0234 115.469C40.2578 114.578 39.6719 114.109 39.6719 113.078V112.344C39.6719 111.508 40.5312 110.016 41.0391 109.117C41.1562 108.906 41.2734 108.703 41.3828 108.508C41.4922 108.313 41.5703 108.109 41.625 107.906C42.3203 107.156 43.6172 106.039 44.875 106.039H44.9219C45.2266 106.273 45.6172 107.555 45.6328 108.695C45.625 109.734 46.2578 110.656 47.2266 111.031C48.1953 111.406 49.2969 111.133 49.9922 110.367C50.5703 109.727 51.7266 109 52.0625 109.148C52.1719 109.289 52.4219 109.906 52.4062 111.227C52.3906 112.359 52.1953 113.344 52.1953 113.344C52 114.297 52.3672 115.273 53.1484 115.852C53.8984 116.414 54.9062 116.508 55.7422 116.094C55.8516 116.055 56.2969 115.922 56.8984 116.266C57.0703 116.359 57.3594 116.523 57.3281 117.398C57.2969 118.172 57.0234 118.891 56.9922 118.977C56.5937 119.891 56.7812 120.93 57.4531 121.664C58.1328 122.398 59.1875 122.641 60.125 122.305C60.125 122.305 60.4062 122.25 60.7266 122.258C61.2891 122.281 61.7734 122.484 62.2187 122.891C62.25 123.023 62.4609 123.766 61.9453 125.695V125.695ZM96.7031 111.516C96.7031 112.703 96.0625 113.781 95.0703 114.758L82.9141 105.258C82.4844 104.922 81.9766 104.758 81.4687 104.758C80.7734 104.758 80.0859 105.07 79.6172 105.656C78.8203 106.68 79 108.148 80.0234 108.945L91.0547 117.563C90.2266 118.023 89.3906 118.461 88.5937 118.875C88.1797 119.086 87.7734 119.297 87.3828 119.508L76.8359 111.266C76.4062 110.93 75.8984 110.766 75.3906 110.766C74.6953 110.766 74.0078 111.078 73.5391 111.664C72.7422 112.688 72.9219 114.156 73.9453 114.953L82.9609 121.992C81.9297 122.539 80.7812 123.117 79.5937 123.688L72.5625 118.203C72.1328 117.867 71.625 117.703 71.125 117.703C70.4297 117.703 69.7344 118.016 69.2734 118.602C68.4766 119.625 68.6562 121.094 69.6797 121.891L74.7031 125.82C72.8047 126.539 71.1484 127.023 70.1562 127.023H69.4219C68.4609 127.023 67.6328 126.742 66.8984 126.469C67.6719 123.211 67.2578 120.805 65.6797 119.297C64.6016 118.273 63.4219 117.711 62.3047 117.445C62.3594 114.969 61.3047 113.008 59.3203 111.898C58.6484 111.523 57.9922 111.289 57.3828 111.164V110.984C57.3594 108.078 56.4766 106.047 54.7578 104.945C53.2812 104 51.5547 103.867 49.7891 104.547C48.8203 102.305 47.0625 101.031 44.8594 101.031C43.3594 101.031 42.0156 101.5 40.8828 102.133C39.9062 102.68 38.6719 102.461 37.9531 101.594L36.7578 100.148L36.6875 100.07C35.7656 99.0547 35.75 97.5 36.6406 96.4531L36.6719 96.4141L47.6484 82.4922C48.1719 81.8984 48.9141 81.5625 49.7031 81.5625C50.0781 81.5625 50.4531 81.6406 50.7969 81.7969C51.5234 82.1172 52.0859 82.375 52.5859 82.6016C53.5937 83.0625 54.3281 83.3906 55.4375 83.8047C55.9609 84 56.0234 84.7031 55.5469 84.9922C54.8125 85.4375 54.1641 86.0234 53.7422 86.875C52.9687 88.4219 53.0156 91.0547 54.6094 93.0938C55.3437 94.0313 56.7422 95.2656 59.2344 95.7734C61.2969 96.2031 63.8594 96.0781 66.8359 95.4219C74.7578 93.6641 77.3203 94.7813 77.6172 94.9297C77.6328 94.9375 77.6406 94.9453 77.6484 94.9609L96.7031 109.766V111.516ZM105.25 101.242C103.203 103.227 101.234 104.898 99.8984 105.922L80.8047 91.0703C80.2812 90.625 79.1953 89.9688 77.0937 89.6406C74.2578 89.2031 70.4531 89.5078 65.7734 90.5469C60.6562 91.6797 59.0547 90.5234 58.6797 90.1484C58.3516 89.8125 58.2812 89.4375 58.2734 89.2109C58.625 89.0313 59.3125 88.7969 59.7891 88.6406C60.4766 88.4063 61.25 88.1484 62.0391 87.7891C64.2969 86.7578 66.2187 85.0547 66.4297 84.8594C66.6172 84.6875 66.7734 84.4922 66.8984 84.2891C67.3047 84.0938 67.6797 83.8828 68.0469 83.6875C69.5469 82.8672 70.9609 82.0937 73.8672 82.0937H75.1797C75.3594 82.0937 75.8984 82.1641 77.0156 82.8125C77.9766 83.375 79.0469 84.1719 80.0859 84.9453C81.9766 86.3594 83.7578 87.6875 85.5625 88.1797C85.7969 88.2422 86.0469 88.2734 86.2891 88.2734C86.8125 88.2734 87.3203 88.1328 87.7656 87.8516L87.8359 87.8047L90.75 85.7187C91.1406 85.4922 91.5703 85.375 92.0156 85.375C92.8984 85.375 93.8047 85.8359 94.4531 86.6094C95.6328 88.0156 97.3828 89.6406 99.2266 91.3594C101.797 93.75 104.719 96.4609 105.711 98.2969C106.227 99.2656 106.039 100.477 105.25 101.242Z" fill="#00896C"/>
</svg>
