<svg width="300" height="115" viewBox="0 0 300 115" fill="none" xmlns="http://www.w3.org/2000/svg">
<ellipse cx="90.2752" cy="72.5728" rx="44.2752" ry="42.4272" fill="white"/>
<path d="M115.023 69.9353L91.3391 47.6815C90.6223 47.0055 89.4731 47.011 88.7619 47.6924L65.3283 70.1479C64.566 70.8784 64.5774 72.0614 65.3454 72.7811L66.7051 74.0513C67.4617 74.76 68.6678 74.7546 69.4188 74.0404L88.9326 55.4284C89.547 54.845 90.5369 54.845 91.1514 55.4284L110.677 74.0513C111.422 74.76 112.617 74.7709 113.373 74.0786L115 72.5903C115.797 71.8761 115.802 70.6713 115.023 69.9353V69.9353ZM107.474 49.0826C107.474 48.3466 106.853 47.7524 106.085 47.7524H101.028C100.26 47.7524 99.6396 48.3466 99.6396 49.0826V51.803L107.479 59.3154V49.0826H107.474Z" fill="#00896C"/>
<path d="M89.1602 58.8302L69.618 77.3114V93.9445C69.618 95.0185 70.5282 95.8907 71.649 95.8907H81.2011C82.3218 95.8907 83.2321 95.0185 83.2321 93.9445V80.5115C83.2321 79.9446 83.7157 79.4812 84.3073 79.4812H95.8734C96.465 79.4812 96.9486 79.9446 96.9486 80.5115V93.939C96.9486 95.013 97.8589 95.8853 98.9796 95.8853H108.424C109.544 95.8853 110.455 95.013 110.455 93.939V77.306L91.2196 58.8248C90.6621 58.2796 89.7348 58.2796 89.1602 58.8302V58.8302Z" fill="#00896C"/>
<path d="M4.07 1.884H7.172V17.68H5.61V3.424H3.124L4.07 1.884ZM18.1876 18.076C16.4863 18.076 15.1736 17.3793 14.2496 15.986C13.3403 14.578 12.8856 12.51 12.8856 9.782C12.8856 7.054 13.3403 4.99333 14.2496 3.6C15.1736 2.192 16.479 1.488 18.1656 1.488C19.8523 1.488 21.187 2.20667 22.1696 3.644C23.167 5.06667 23.6656 7.11267 23.6656 9.782C23.6656 12.4513 23.167 14.5047 22.1696 15.942C21.1723 17.3647 19.845 18.076 18.1876 18.076ZM18.2316 2.984C17.0143 2.984 16.0683 3.57067 15.3936 4.744C14.719 5.91733 14.3816 7.61133 14.3816 9.826C14.3816 14.3727 15.665 16.646 18.2316 16.646C19.4783 16.646 20.4463 16.052 21.1356 14.864C21.8396 13.6613 22.1916 11.9673 22.1916 9.782C22.1916 7.59667 21.8323 5.91733 21.1136 4.744C20.395 3.57067 19.4343 2.984 18.2316 2.984ZM30.3693 18.076C28.6679 18.076 27.3553 17.3793 26.4313 15.986C25.5219 14.578 25.0673 12.51 25.0673 9.782C25.0673 7.054 25.5219 4.99333 26.4313 3.6C27.3553 2.192 28.6606 1.488 30.3473 1.488C32.0339 1.488 33.3686 2.20667 34.3513 3.644C35.3486 5.06667 35.8473 7.11267 35.8473 9.782C35.8473 12.4513 35.3486 14.5047 34.3513 15.942C33.3539 17.3647 32.0266 18.076 30.3693 18.076ZM30.4133 2.984C29.1959 2.984 28.2499 3.57067 27.5753 4.744C26.9006 5.91733 26.5633 7.61133 26.5633 9.826C26.5633 14.3727 27.8466 16.646 30.4133 16.646C31.6599 16.646 32.6279 16.052 33.3173 14.864C34.0213 13.6613 34.3733 11.9673 34.3733 9.782C34.3733 7.59667 34.0139 5.91733 33.2953 4.744C32.5766 3.57067 31.6159 2.984 30.4133 2.984ZM42.5509 18.076C40.8496 18.076 39.5369 17.3793 38.6129 15.986C37.7036 14.578 37.2489 12.51 37.2489 9.782C37.2489 7.054 37.7036 4.99333 38.6129 3.6C39.5369 2.192 40.8423 1.488 42.5289 1.488C44.2156 1.488 45.5503 2.20667 46.5329 3.644C47.5303 5.06667 48.0289 7.11267 48.0289 9.782C48.0289 12.4513 47.5303 14.5047 46.5329 15.942C45.5356 17.3647 44.2083 18.076 42.5509 18.076ZM42.5949 2.984C41.3776 2.984 40.4316 3.57067 39.7569 4.744C39.0823 5.91733 38.7449 7.61133 38.7449 9.826C38.7449 14.3727 40.0283 16.646 42.5949 16.646C43.8416 16.646 44.8096 16.052 45.4989 14.864C46.2029 13.6613 46.5549 11.9673 46.5549 9.782C46.5549 7.59667 46.1956 5.91733 45.4769 4.744C44.7583 3.57067 43.7976 2.984 42.5949 2.984ZM54.7326 18.076C53.0312 18.076 51.7186 17.3793 50.7946 15.986C49.8852 14.578 49.4306 12.51 49.4306 9.782C49.4306 7.054 49.8852 4.99333 50.7946 3.6C51.7186 2.192 53.0239 1.488 54.7106 1.488C56.3972 1.488 57.7319 2.20667 58.7146 3.644C59.7119 5.06667 60.2106 7.11267 60.2106 9.782C60.2106 12.4513 59.7119 14.5047 58.7146 15.942C57.7172 17.3647 56.3899 18.076 54.7326 18.076ZM54.7766 2.984C53.5592 2.984 52.6132 3.57067 51.9386 4.744C51.2639 5.91733 50.9266 7.61133 50.9266 9.826C50.9266 14.3727 52.2099 16.646 54.7766 16.646C56.0232 16.646 56.9912 16.052 57.6806 14.864C58.3846 13.6613 58.7366 11.9673 58.7366 9.782C58.7366 7.59667 58.3772 5.91733 57.6586 4.744C56.9399 3.57067 55.9792 2.984 54.7766 2.984ZM66.8482 9.034V4.392H68.3002V9.034H73.0082V10.508H68.3002V15.172H66.8482V10.508H62.1402V9.034H66.8482ZM91.52 15.876C92.3707 15.8613 93.5733 15.7953 95.128 15.678V17.152C93.6613 16.976 90.3467 16.888 85.184 16.888C80.0213 16.888 76.7947 16.9687 75.504 17.13V15.656C77.572 15.8027 78.7527 15.876 79.046 15.876V8.506C79.046 7.37667 78.9947 6.504 78.892 5.888C79.9773 5.976 81.5247 6.02 83.534 6.02C83.71 5.404 83.864 4.832 83.996 4.304C80.6227 4.304 78.2393 4.37733 76.846 4.524V3.116C78.2833 3.26267 80.7327 3.336 84.194 3.336C84.3993 2.33867 84.48 1.53933 84.436 0.937999C85.184 1.12867 85.7047 1.23133 85.998 1.246C86.306 1.26067 86.46 1.312 86.46 1.4C86.46 1.488 86.4013 1.56867 86.284 1.642C86.1667 1.71533 86.0567 1.862 85.954 2.082C85.866 2.28733 85.734 2.70533 85.558 3.336C89.562 3.336 92.1873 3.26267 93.434 3.116V4.524C92.1433 4.37733 89.4373 4.304 85.316 4.304C85.228 4.612 85.0813 5.184 84.876 6.02C88.088 6.02 90.3393 5.976 91.63 5.888C91.5567 6.66533 91.52 7.538 91.52 8.506V15.876ZM90.134 8.572V7.032H80.366V8.572H90.134ZM80.366 9.474V11.014H90.134V9.474H80.366ZM90.134 13.434V11.894H80.366V13.434H90.134ZM80.366 15.876H90.134V14.336H80.366V15.876ZM82.148 16.866C82.5147 17.3353 82.852 17.6947 83.16 17.944C83.248 18.0173 83.292 18.1053 83.292 18.208C83.292 18.3107 83.1967 18.3693 83.006 18.384C82.6247 18.4133 82.2507 18.5453 81.884 18.78C80.5493 19.6453 78.8553 20.518 76.802 21.398C76.5087 20.7673 76.164 20.3347 75.768 20.1C77.0293 19.792 78.2687 19.3227 79.486 18.692C80.718 18.0613 81.6053 17.4527 82.148 16.866ZM94.204 19.924L93.412 21.112C91.7693 20.144 89.518 19.1393 86.658 18.098L87.208 17.042C90.0533 18.0247 92.3853 18.9853 94.204 19.924ZM108.438 3.556C112.325 3.556 114.935 3.49 116.27 3.358C116.153 3.73933 116.094 4.37733 116.094 5.272C116.094 6.152 116.138 6.88533 116.226 7.472H114.708V4.612H100.232V7.45H98.78C98.868 6.77533 98.912 6.03467 98.912 5.228C98.912 4.42133 98.868 3.798 98.78 3.358C99.9533 3.47533 102.725 3.54133 107.096 3.556C106.744 2.88133 106.179 2.214 105.402 1.554L106.656 0.761999C107.316 1.51 107.91 2.44133 108.438 3.556ZM109.032 13.434C112.772 13.4193 115.405 13.346 116.93 13.214V14.754C115.097 14.6073 112.295 14.534 108.526 14.534C107.793 15.9713 106.685 17.2327 105.204 18.318C103.723 19.4033 101.75 20.4153 99.286 21.354C98.978 20.6647 98.56 20.1807 98.032 19.902C99.9387 19.5647 101.684 18.9267 103.268 17.988C104.867 17.0347 106.128 15.8833 107.052 14.534C102.74 14.534 99.77 14.6073 98.142 14.754V13.214C100.254 13.3607 103.437 13.434 107.69 13.434C108.057 12.6567 108.35 11.6667 108.57 10.464C108.805 9.26133 108.922 8.264 108.922 7.472C108.922 6.68 108.878 6.042 108.79 5.558C109.494 5.646 110.059 5.69 110.484 5.69C110.675 5.69 110.77 5.74133 110.77 5.844C110.77 5.94667 110.704 6.064 110.572 6.196C110.44 6.328 110.359 6.48933 110.33 6.68C110.301 6.856 110.279 7.20067 110.264 7.714C110.235 9.166 109.824 11.0727 109.032 13.434ZM107.514 8.88L106.81 9.936C105.783 9.08533 104.463 8.27133 102.85 7.494L103.532 6.526C105.028 7.33267 106.355 8.11733 107.514 8.88ZM105.248 11.564L104.544 12.598C103.165 11.63 101.728 10.8233 100.232 10.178L100.848 9.21C102.403 9.958 103.869 10.7427 105.248 11.564ZM116.49 20.012L115.478 21.002C113.527 19.242 111.342 17.746 108.922 16.514L109.626 15.502C113.029 17.394 115.317 18.8973 116.49 20.012ZM11.264 25.886C11 25.358 10.5673 24.7493 9.966 24.06L11.396 23.422C11.9387 24.1993 12.3493 25.0207 12.628 25.886C15.2827 25.8713 17.3873 25.8127 18.942 25.71C18.8687 26.59 18.832 27.4113 18.832 28.174C18.832 28.922 18.8687 29.7067 18.942 30.528C17.6513 30.4253 15.2167 30.374 11.638 30.374H5.038C5.038 33.7473 4.862 36.2407 4.51 37.854C4.17267 39.4527 3.53467 41.022 2.596 42.562C2.14133 42.166 1.62067 41.9387 1.034 41.88C1.97267 40.8093 2.65467 39.4967 3.08 37.942C3.52 36.3727 3.74 34.246 3.74 31.562C3.74 28.878 3.68133 26.9273 3.564 25.71C4.76667 25.8273 7.33333 25.886 11.264 25.886ZM17.446 29.296V26.964H5.038V29.296H17.446ZM10.076 34.092C8.96133 34.1067 7.436 34.158 5.5 34.246V32.904C7.172 33.0067 9.548 33.058 12.628 33.058C12.3347 32.5007 11.9093 31.9213 11.352 31.32L12.782 30.682C13.2953 31.4887 13.6987 32.2807 13.992 33.058C16.7787 33.058 18.9787 33.0067 20.592 32.904V34.246C18.9347 34.1433 15.8693 34.092 11.396 34.092C11.3667 35.016 11.3153 35.7787 11.242 36.38H16.104C16.7787 36.38 17.6733 36.3433 18.788 36.27L18.062 40.626C17.9887 41.0953 17.82 41.462 17.556 41.726C17.3067 41.99 16.852 42.2027 16.192 42.364C15.5467 42.5253 14.608 42.6353 13.376 42.694C13.3467 42.122 13.1193 41.5647 12.694 41.022C13.574 41.1247 14.3 41.176 14.872 41.176C15.4587 41.176 15.906 41.1027 16.214 40.956C16.522 40.7947 16.7127 40.5013 16.786 40.076L17.27 37.458H11.066C10.8167 38.6167 10.3327 39.6287 9.614 40.494C8.89533 41.3593 7.788 42.254 6.292 43.178C5.88133 42.5913 5.42667 42.1953 4.928 41.99C6.79067 41.2713 8.11067 40.3767 8.888 39.306C9.68 38.2207 10.076 36.4827 10.076 34.092ZM28.798 26.106L27.83 27.074C27.0527 26.3113 25.8427 25.4533 24.2 24.5L24.926 23.4C26.4807 24.3093 27.7713 25.2113 28.798 26.106ZM42.636 24.39V25.732C41.9613 25.6293 39.8933 25.578 36.432 25.578H31.086C31.1887 28.6727 31.24 30.924 31.24 32.332C31.24 35.0013 31.0567 36.974 30.69 38.25C30.3233 39.526 29.5533 41.0587 28.38 42.848C28.1307 42.584 27.8813 42.3933 27.632 42.276C27.3973 42.1733 27.0747 42.1367 26.664 42.166C28.0133 40.758 28.886 39.3647 29.282 37.986C29.678 36.5927 29.876 34.7667 29.876 32.508C29.876 30.2347 29.788 27.5287 29.612 24.39C29.832 24.4927 32.0027 24.544 36.124 24.544C40.26 24.544 42.4307 24.4927 42.636 24.39ZM35.222 28.174C35.6473 27.47 35.948 26.6267 36.124 25.644C36.432 25.9667 36.9013 26.2087 37.532 26.37C37.6787 26.3993 37.752 26.4873 37.752 26.634C37.752 26.7807 37.6567 26.8907 37.466 26.964C37.2753 27.0373 37.0993 27.1547 36.938 27.316C36.7913 27.4773 36.6007 27.7633 36.366 28.174H38.324C39.8933 28.174 40.986 28.13 41.602 28.042C41.4847 28.834 41.426 29.7507 41.426 30.792V32.838C41.426 33.894 41.4847 34.8473 41.602 35.698C40.986 35.5807 39.7687 35.5147 37.95 35.5V41.308C37.95 41.8507 37.862 42.2467 37.686 42.496C37.5247 42.76 37.1947 42.9433 36.696 43.046C36.1973 43.1633 35.4053 43.2073 34.32 43.178C34.3493 42.5913 34.1587 42.0853 33.748 41.66C34.5107 41.8067 35.0827 41.88 35.464 41.88C35.8453 41.88 36.1167 41.8287 36.278 41.726C36.454 41.638 36.542 41.4693 36.542 41.22V35.5C34.4887 35.5 33.1687 35.566 32.582 35.698C32.6847 34.994 32.736 34.0407 32.736 32.838V30.792C32.736 29.6333 32.6847 28.7167 32.582 28.042C33.242 28.13 34.122 28.174 35.222 28.174ZM40.084 31.364V29.164H34.034V31.364H40.084ZM40.084 34.51V32.31H34.034V34.51H40.084ZM27.368 31.562L26.554 32.618C25.3367 31.5327 24.09 30.6673 22.814 30.022L23.496 28.944C25.0507 29.824 26.3413 30.6967 27.368 31.562ZM27.874 35.038C26.3193 38.5433 25.19 41.1833 24.486 42.958C23.9873 42.606 23.43 42.3493 22.814 42.188C24.046 40.6773 25.322 37.986 26.642 34.114C27.038 34.554 27.4487 34.862 27.874 35.038ZM33.682 36.6C34.0193 36.8493 34.452 37.04 34.98 37.172C35.2 37.2307 35.31 37.348 35.31 37.524C35.31 37.6853 35.1853 37.81 34.936 37.898C34.628 38.0153 34.232 38.4333 33.748 39.152C33.2787 39.856 32.714 40.6113 32.054 41.418C31.7167 41.0953 31.24 40.8387 30.624 40.648C32.1053 39.6213 33.1247 38.272 33.682 36.6ZM43.032 40.472L41.91 41.33C40.8687 39.834 39.8273 38.6093 38.786 37.656L39.71 36.864C41.0593 38.2427 42.1667 39.4453 43.032 40.472Z" fill="white"/>
</svg>
