<svg width="435" height="53" viewBox="0 0 435 53" fill="none" xmlns="http://www.w3.org/2000/svg">
<path d="M5.84 1.32L11.42 2.76L10.28 7.2L44.06 4.86L44.42 10.5L27.92 11.58L28.1 18.78L40.16 18.96L39.98 24.6L28.22 24.48L28.52 36.54L45.98 34.74L46.52 40.32L28.7 42.18L28.94 51.3L23.24 51.42L23 42.78L1.28 45L0.68 39.36L9.86 38.46L8.72 21.54L11.54 18.54L22.4 18.72L22.22 12L8.84 12.9L7.04 19.92L1.58 18.6L5.84 1.32ZM22.88 37.14L22.52 24.36L14.54 24.24L15.44 37.86L22.88 37.14ZM69.0753 52.08L63.4953 52.14L63.3153 43.08L53.4153 44.82L52.4553 39.24L63.1953 37.38L63.0153 28.44L55.6953 27.84L53.1753 24.36L55.8153 14.16L52.5153 14.52L51.9153 8.88L57.3153 8.34L59.2953 0.719997L64.7553 2.16L63.3153 7.68L75.6753 6.36L76.2753 11.94L61.7553 13.5L59.4753 22.44L62.8953 22.74L62.7753 16.98L68.4753 16.92L68.5953 23.22L72.7953 23.58L72.3153 29.22L68.6553 28.92L68.7753 36.42L75.8553 35.22L76.8153 40.74L68.8953 42.12L69.0753 52.08ZM105.615 22.08L102.015 26.46L91.7553 18.12L78.7953 28.44L75.2553 23.94L94.2753 8.88L78.6753 7.98L78.9753 2.28L102.015 3.72L103.575 8.76L96.3153 14.52L105.615 22.08ZM93.9753 45.24L102.975 45.54L102.795 51.12L75.3153 50.04L75.5553 44.52L88.3353 45L87.7953 33.66L79.2753 33.96L79.0953 28.26L101.655 27.42L101.895 33.06L93.4353 33.42L93.9753 45.24ZM136.391 2.52L141.191 5.46L114.251 50.34L109.451 47.46L136.391 2.52ZM135.791 22.56L158.531 43.92L154.631 48.06L131.891 26.64L135.791 22.56ZM166.506 25.62L166.266 13.56L168.906 10.62L172.446 10.32L178.326 2.22L182.946 5.52L179.946 9.6L186.966 8.94L190.026 11.7L190.866 43.44L188.526 46.26L170.406 49.44L167.046 46.62L166.686 31.56L164.946 32.1L163.266 26.64L166.506 25.62ZM198.246 2.22L203.346 4.8L200.946 9.54H212.226L215.106 12.36L214.266 47.76L211.026 50.52L194.766 48.6L195.426 42.9L208.626 44.52L209.346 15.24H198.126L196.206 19.14L191.106 16.56L198.246 2.22ZM181.746 20.94L183.366 26.4L172.326 29.82L172.626 43.26L185.166 41.1L184.446 14.94L172.026 16.02L172.206 23.88L181.746 20.94ZM197.406 22.32L206.346 31.62L202.206 35.64L193.266 26.22L197.406 22.32ZM267.181 13.32L263.101 16.92L265.861 16.86L268.801 19.92L268.201 28.02L265.501 30.72L247.741 31.44L247.861 35.04L266.401 34.68L269.281 37.98L267.421 49.2L263.761 51.42L252.961 48.12L254.701 42.66L262.321 45.12L263.101 40.5L248.101 40.8L248.521 52.2L242.821 52.38L242.401 40.92L234.181 41.04L224.281 52.2L220.021 48.42L226.441 41.22H224.101L221.281 37.5L224.281 28.56L226.861 26.58L241.861 25.98L241.741 22.92L222.181 23.22L222.121 17.52L262.741 16.92L257.281 10.68L253.321 10.56L249.781 16.26L244.921 13.26L252.781 0.419997L257.701 3.42L256.741 4.98L269.881 5.4L269.761 11.1L265.081 10.98L267.181 13.32ZM240.121 12.96L236.101 16.92L229.801 10.68L227.161 10.62L223.681 16.26L218.821 13.32L226.681 0.479997L231.601 3.42L230.641 4.98L242.401 5.4L242.221 11.1L238.141 10.98L240.121 12.96ZM247.561 25.74L262.681 25.08L262.861 22.62L247.441 22.86L247.561 25.74ZM242.221 35.16L242.101 31.68L229.081 32.22L228.001 35.46L242.221 35.16ZM322.197 22.02L322.617 27.66L277.017 30.84L276.537 25.26L322.197 22.02ZM380.392 23.04L377.692 27.96L351.592 13.62L332.992 30.84L329.152 26.7L357.052 0.839999L360.892 4.98L355.912 9.54L380.392 23.04ZM349.912 51.54L352.312 21.78L358.012 22.2L355.552 51.96L349.912 51.54ZM428.387 12.54L393.227 11.88L392.027 18.78L386.447 17.82L388.067 8.52L390.887 6.18L409.307 6.54L407.687 3.12L412.787 0.599999L415.607 6.66L431.627 6.9L434.387 10.14L433.127 19.38L427.487 18.6L428.387 12.54ZM409.427 27.6L406.607 25.44L390.887 31.08L389.027 25.74L407.627 19.08L399.287 18.3L399.767 12.72L421.067 14.52L421.787 19.98L412.907 23.22L415.367 25.08L416.447 27L418.127 47.04L415.847 50.04L404.327 52.2L403.187 46.74L412.247 44.94L411.227 33L386.867 42.12L384.887 36.78L409.427 27.6ZM418.367 27.78L427.787 21.24L431.027 25.92L424.067 30.78L434.987 44.7L430.487 48.24L417.767 31.92L418.367 27.78ZM408.287 36.3L410.447 41.58L392.027 49.44L389.867 44.28L408.287 36.3Z" fill="white"/>
</svg>
