<svg width="482" height="119" viewBox="0 0 482 119" fill="none" xmlns="http://www.w3.org/2000/svg">
<ellipse cx="61.1835" cy="59.9709" rx="61.1835" ry="59.0291" fill="white"/>
<path d="M133.784 65.728H132.128C132.208 63.968 132.792 62.56 133.88 61.504C134.968 60.432 136.28 59.896 137.816 59.896C139.368 59.896 140.648 60.4 141.656 61.408C142.68 62.4 143.192 63.616 143.192 65.056C143.192 66.128 142.904 67.12 142.328 68.032C141.768 68.944 140.912 70.024 139.76 71.272L135.464 75.904H143.432V77.56H131.72L138.296 70.456C139.448 69.208 140.272 68.224 140.768 67.504C141.264 66.784 141.512 65.96 141.512 65.032C141.512 64.104 141.144 63.288 140.408 62.584C139.688 61.88 138.784 61.528 137.696 61.528C136.624 61.528 135.728 61.896 135.008 62.632C134.304 63.352 133.896 64.384 133.784 65.728ZM150.841 77.992C148.985 77.992 147.553 77.232 146.545 75.712C145.553 74.176 145.057 71.92 145.057 68.944C145.057 65.968 145.553 63.72 146.545 62.2C147.553 60.664 148.977 59.896 150.817 59.896C152.657 59.896 154.113 60.68 155.185 62.248C156.273 63.8 156.817 66.032 156.817 68.944C156.817 71.856 156.273 74.096 155.185 75.664C154.097 77.216 152.649 77.992 150.841 77.992ZM150.889 61.528C149.561 61.528 148.529 62.168 147.793 63.448C147.057 64.728 146.689 66.576 146.689 68.992C146.689 73.952 148.089 76.432 150.889 76.432C152.249 76.432 153.305 75.784 154.057 74.488C154.825 73.176 155.209 71.328 155.209 68.944C155.209 66.56 154.817 64.728 154.033 63.448C153.249 62.168 152.201 61.528 150.889 61.528ZM165.666 62.8C163.41 62.8 161.33 62.856 159.426 62.968V61.384C161.298 61.512 164.674 61.576 169.554 61.576C174.45 61.576 177.962 61.512 180.09 61.384V62.968C178.362 62.84 174.114 62.776 167.346 62.776C167.394 64.152 167.338 65.872 167.178 67.936H174.162C175.858 67.936 176.954 67.864 177.45 67.72L176.538 76.24C176.394 77.552 176.234 78.44 176.058 78.904C175.898 79.368 175.626 79.728 175.242 79.984C174.874 80.24 174.346 80.424 173.658 80.536C172.986 80.648 172.002 80.728 170.706 80.776C170.738 80.36 170.698 80.024 170.586 79.768C170.474 79.512 170.282 79.232 170.01 78.928C170.842 78.992 171.618 79.024 172.338 79.024C173.074 79.024 173.634 78.92 174.018 78.712C174.418 78.488 174.682 78.144 174.81 77.68C174.938 77.216 175.09 76.04 175.266 74.152C175.442 72.248 175.57 70.6 175.65 69.208H167.058C166.802 71.896 166.162 74.16 165.138 76C164.13 77.824 162.57 79.624 160.458 81.4C160.154 80.792 159.658 80.416 158.97 80.272C161.722 78.48 163.546 76.368 164.442 73.936C165.338 71.504 165.786 68.664 165.786 65.416C165.786 64.408 165.746 63.536 165.666 62.8ZM196.074 62.512C193.018 62.816 191.362 62.976 191.106 62.992C191.074 62.576 190.866 62.096 190.482 61.552C193.17 61.616 195.682 61.456 198.018 61.072C200.37 60.688 201.802 60.32 202.314 59.968C202.538 60.464 202.874 60.944 203.322 61.408C203.434 61.536 203.49 61.664 203.49 61.792C203.49 61.92 203.418 61.984 203.274 61.984C203.21 61.984 203.146 61.968 203.082 61.936C202.89 61.824 202.514 61.768 201.954 61.768C201.41 61.768 200.922 61.816 200.49 61.912C200.074 61.992 199.106 62.128 197.586 62.32V66.736C200.674 66.736 202.922 66.672 204.33 66.544V68.056C202.714 67.912 200.466 67.84 197.586 67.84V71.872C199.874 71.856 201.53 71.784 202.554 71.656C202.442 72.248 202.386 72.968 202.386 73.816V77.824C202.386 78.8 202.442 79.784 202.554 80.776H200.946V79.264H192.81V81.136H191.154C191.282 80.112 191.346 79.128 191.346 78.184V73.816C191.346 72.808 191.298 72.088 191.202 71.656C192.194 71.8 193.818 71.872 196.074 71.872V67.84C193.418 67.84 191.21 67.904 189.45 68.032V66.544C190.858 66.672 193.066 66.736 196.074 66.736V62.512ZM192.81 78.136H200.946V73.024H192.81V78.136ZM189.834 63.208L188.802 64.552C187.746 63.608 186.314 62.64 184.506 61.648L185.394 60.328C187.01 61.24 188.49 62.2 189.834 63.208ZM188.706 68.776L187.722 70.12C186.378 68.968 184.914 68.048 183.33 67.36L184.122 65.992C185.626 66.776 187.154 67.704 188.706 68.776ZM189.378 72.52C188.354 74.328 186.994 77.168 185.298 81.04C184.802 80.56 184.258 80.208 183.666 79.984C185.33 77.504 186.762 74.672 187.962 71.488C188.378 71.968 188.85 72.312 189.378 72.52ZM220.746 63.304C219.978 63.464 218.642 63.656 216.738 63.88C216.738 63.384 216.522 62.84 216.09 62.248C216.538 62.28 216.962 62.296 217.362 62.296C218.434 62.296 219.698 62.192 221.154 61.984C222.626 61.76 224.146 61.272 225.714 60.52C225.922 60.888 226.162 61.24 226.434 61.576C226.706 61.896 226.842 62.112 226.842 62.224C226.842 62.336 226.802 62.416 226.722 62.464C226.642 62.512 226.538 62.52 226.41 62.488C226.282 62.456 226.09 62.44 225.834 62.44C224.826 62.44 223.57 62.624 222.066 62.992C222.082 64.016 222.09 65.064 222.09 66.136C222.09 67.208 222.066 68.2 222.018 69.112C224.546 69.112 226.498 69.032 227.874 68.872V70.48C226.69 70.336 225.17 70.256 223.314 70.24C224.21 74.336 225.922 77.36 228.45 79.312C227.81 79.568 227.346 80.096 227.058 80.896C224.914 78.832 223.346 75.28 222.354 70.24H221.922C221.698 72.624 221.074 74.656 220.05 76.336C219.042 78.016 217.426 79.664 215.202 81.28C214.77 80.72 214.146 80.368 213.33 80.224C215.586 79.04 217.29 77.64 218.442 76.024C219.594 74.392 220.298 72.464 220.554 70.24C218.698 70.256 217.154 70.336 215.922 70.48V68.872C217.17 69.016 218.754 69.096 220.674 69.112C220.754 68.088 220.794 67.096 220.794 66.136C220.794 65.16 220.778 64.216 220.746 63.304ZM212.058 71.608C213.818 71.608 214.962 71.568 215.49 71.488V72.784C215.106 72.72 213.962 72.688 212.058 72.688V76.96C213.61 76.368 214.834 75.792 215.73 75.232C215.698 75.68 215.794 76.152 216.018 76.648C214.066 77.576 211.01 78.896 206.85 80.608C206.738 80.032 206.49 79.384 206.106 78.664C206.986 78.52 207.49 78.432 207.618 78.4V73.12C207.618 72.144 207.554 71.216 207.426 70.336C207.698 70.4 208.274 70.432 209.154 70.432C209.362 70.432 209.466 70.504 209.466 70.648C209.466 70.792 209.378 70.936 209.202 71.08C209.042 71.208 208.962 71.536 208.962 72.064V78.088L210.666 77.512V67.984C209.674 68 208.65 68.032 207.594 68.08C207.706 67.216 207.762 65.92 207.762 64.192C207.762 62.448 207.706 61.352 207.594 60.904C208.506 61.016 209.746 61.072 211.314 61.072C212.882 61.072 214.13 61.016 215.058 60.904C214.962 62.52 214.914 63.968 214.914 65.248C214.914 66.512 214.954 67.456 215.034 68.08C213.93 68.032 212.938 68 212.058 67.984V71.608ZM213.522 66.952V62.224H209.13V66.952H213.522ZM241.002 73.528H235.05C235.05 75.272 234.866 76.728 234.498 77.896C234.146 79.048 233.578 80.304 232.794 81.664C232.314 81.232 231.73 81 231.042 80.968C232.002 79.96 232.642 78.856 232.962 77.656C233.298 76.44 233.466 74.544 233.466 71.968V64.552C233.466 62.904 233.402 61.712 233.274 60.976C234.442 61.088 237.258 61.144 241.722 61.144C246.202 61.144 249.098 61.088 250.41 60.976C250.266 61.488 250.194 62.68 250.194 64.552V78.928C250.194 79.632 250.114 80.136 249.954 80.44C249.794 80.76 249.458 80.984 248.946 81.112C248.434 81.24 247.586 81.328 246.402 81.376C246.45 81.168 246.474 80.984 246.474 80.824C246.474 80.376 246.25 79.968 245.802 79.6C246.458 79.696 246.986 79.744 247.386 79.744C247.802 79.744 248.106 79.672 248.298 79.528C248.506 79.384 248.61 79.096 248.61 78.664V73.528H242.562V75.736C242.562 77.56 242.61 78.896 242.706 79.744H240.858C240.954 78.88 241.002 77.544 241.002 75.736V73.528ZM241.002 66.904V62.296H235.05V66.904H241.002ZM242.562 62.296V66.904H248.61V62.296H242.562ZM242.562 72.376H248.61V68.104H242.562V72.376ZM235.05 72.376H241.002V68.104H235.05V72.376ZM266.586 63.208C266.058 62.376 265.178 61.312 263.946 60.016L265.194 59.008C266.218 60.224 267.226 61.624 268.218 63.208C272.186 63.208 274.41 63.152 274.89 63.04C274.762 63.472 274.698 64.096 274.698 64.912V70.912C274.698 72.144 274.754 73.184 274.866 74.032H273.186V72.064H260.562C260.53 74.048 260.25 75.776 259.722 77.248C259.21 78.704 258.378 80.136 257.226 81.544C256.794 81.08 256.25 80.776 255.594 80.632C256.586 79.784 257.338 78.856 257.85 77.848C258.378 76.84 258.73 75.696 258.906 74.416C259.082 73.136 259.17 71.432 259.17 69.304C259.17 67.16 259.114 65.072 259.002 63.04C259.658 63.152 262.186 63.208 266.586 63.208ZM260.586 70.744H273.186V64.48H260.586V70.744Z" fill="white"/>
<path d="M89.8056 75.5222C89.8054 66.755 84.7712 59.2612 77.6522 56.2051C81.1001 53.7203 83.3724 49.4869 83.3724 44.6795C83.3724 38.116 79.1388 32.6229 73.4563 31.1944C73.4036 31.1807 73.3541 31.188 73.3061 31.208C73.2414 31.2016 73.1788 31.1866 73.1129 31.1866C71.899 31.1866 70.9147 32.2484 70.9147 33.5577C70.9147 34.7403 71.72 35.7122 72.7698 35.891C72.9567 35.9732 73.2018 36.0358 73.2115 36.0395C76.5022 37.2441 78.8705 40.5997 78.8705 44.5561C78.8705 48.9678 75.9243 52.6339 72.0385 53.4012C72.0329 53.4016 72.0283 53.4125 72.0228 53.4154C70.7302 53.5035 69.7035 54.6508 69.7035 56.0668C69.7035 57.5043 70.7603 58.6685 72.0806 58.7254C72.0898 58.7302 72.0979 58.7456 72.1073 58.7463C79.9222 59.6049 85.4618 66.7844 85.4618 75.5227C85.4618 76.816 86.4344 77.8647 87.6339 77.8647C88.8041 77.8647 89.7514 76.8641 89.7969 75.614C89.7985 75.6018 89.8057 75.5922 89.8057 75.58C89.8057 75.5756 89.8043 75.5712 89.8043 75.5659C89.805 75.5514 89.8057 75.5374 89.8057 75.5231V75.5227V75.5222H89.8056ZM63.7787 56.5938C67.8961 53.6186 70.6082 48.5598 70.6082 42.8133C70.6082 33.6567 63.7253 26.2332 55.2342 26.2332C46.7436 26.2332 39.8602 33.6567 39.8602 42.8133C39.8602 48.5603 42.5728 53.6186 46.6895 56.5938C38.1784 60.2568 32.1608 69.2211 32.1608 79.7068C32.1608 80.2973 32.1918 80.8784 32.2337 81.4567H32.2376C32.2376 82.7331 33.1968 83.7668 34.3804 83.7668C35.5633 83.7668 36.5228 82.733 36.5228 81.4567C36.5228 81.3849 36.5092 81.317 36.503 81.2466C36.4618 80.7377 36.4264 80.2282 36.4264 79.7067C36.4264 68.5046 44.8466 59.4242 55.234 59.4242C65.6216 59.4242 74.0421 68.5046 74.0421 79.7067C74.0421 80.2473 74.0066 80.7789 73.9624 81.3061C73.9622 81.3338 73.9551 81.3586 73.9551 81.3862C73.9551 81.395 73.9576 81.4028 73.9576 81.4108C73.9562 81.426 73.9566 81.4419 73.9551 81.4566H73.9622C73.9976 82.6988 74.9373 83.6967 76.0976 83.6967C77.2584 83.6967 78.1981 82.6994 78.2335 81.4566H78.2381C78.2784 80.8782 78.3072 80.2965 78.3072 79.7076C78.3076 69.2211 72.2902 60.2568 63.7787 56.5938ZM55.2342 54.7231C49.1351 54.7231 44.1909 49.3908 44.1909 42.8133C44.1909 36.2361 49.1351 30.9038 55.2342 30.9038C61.3333 30.9038 66.2775 36.236 66.2775 42.8133C66.2775 49.3908 61.3333 54.7231 55.2342 54.7231Z" fill="#00896C"/>
</svg>
