<?xml version="1.0" standalone="no"?><!DOCTYPE svg PUBLIC "-//W3C//DTD SVG 1.1//EN" "http://www.w3.org/Graphics/SVG/1.1/DTD/svg11.dtd"><svg t="1626244746384" class="icon" viewBox="0 0 1024 1024" version="1.1" xmlns="http://www.w3.org/2000/svg" p-id="5259" xmlns:xlink="http://www.w3.org/1999/xlink" width="200" height="200"><defs><style type="text/css"></style></defs><path d="M681.6 280.8c0-11.5 9.3-20.8 20.8-20.8s20.8 9.3 20.8 20.8v153.3c0 11.5-9.3 20.8-20.8 20.8s-20.8-9.3-20.8-20.8V280.8zM681.6 574.3c0-11.5 9.3-20.8 20.8-20.8s20.8 9.3 20.8 20.8v153.4c0 11.5-9.3 20.8-20.8 20.8s-20.8-9.3-20.8-20.8V574.3z" fill="#1E1E1E" p-id="5260"></path><path d="M775.6 82.7C764 71.1 748.1 64 730.5 64h-437c-17.6 0-33.6 7.1-45.1 18.7-11.6 11.6-18.8 27.5-18.8 45.1v737.9c0 17.6 7.2 33.6 18.7 45.1 10.1 10.1 23.5 16.8 38.4 18.4-0.7 3.2-1 6.6-1 10 0 11.5 9.3 20.8 20.8 20.8s20.8-9.3 20.8-20.8c0-2.6 1.1-5.1 2.8-6.8v-0.1c1.7-1.7 4-2.7 6.7-2.7H686.8c2.6 0 5 1.1 6.7 2.8 1.8 1.7 2.8 4.2 2.8 6.8 0 11.5 9.3 20.8 20.8 20.8s20.8-9.3 20.8-20.8c0-3.4-0.3-6.8-1-10 14.9-1.6 28.3-8.3 38.4-18.4 11.6-11.6 18.7-27.5 18.7-45.1V127.8c0.3-17.6-6.8-33.6-18.4-45.1z m-22.9 783c0 6.1-2.5 11.7-6.5 15.7s-9.6 6.5-15.7 6.5H293.6c-6.1 0-11.7-2.5-15.7-6.5s-6.5-9.6-6.5-15.7V525.1h481.4l-0.1 340.6z m0-382.3H271.3V127.8c0-6.1 2.5-11.7 6.4-15.7h0.1c4.1-4.1 9.6-6.6 15.7-6.6v0.1h436.9c6.1 0 11.7 2.5 15.7 6.5s6.5 9.6 6.5 15.7l0.1 355.6z" fill="#1E1E1E" p-id="5261"></path></svg>