<?xml version="1.0" standalone="no"?><!DOCTYPE svg PUBLIC "-//W3C//DTD SVG 1.1//EN" "http://www.w3.org/Graphics/SVG/1.1/DTD/svg11.dtd"><svg t="1626244846016" class="icon" viewBox="0 0 1024 1024" version="1.1" xmlns="http://www.w3.org/2000/svg" p-id="7619" xmlns:xlink="http://www.w3.org/1999/xlink" width="200" height="200"><defs><style type="text/css"></style></defs><path d="M192.2 94.7c-35.2 0-64.1 28.8-64.1 64.1v704.9c0 35.2 28.8 64.1 64.1 64.1 35.2 0 64.1-28.8 64.1-64.1V158.8c0-35.3-28.8-64.1-64.1-64.1z m160.2 0h-5.5c-35.2 0-64.1 28.8-64.1 64.1v704.9c0 35.2 28.8 64.1 64.1 64.1h5.5c35.2 0 64.1-28.8 64.1-64.1V158.8c0-35.3-28.8-64.1-64.1-64.1z m160.2 0c-35.2 0-64.1 28.8-64.1 64.1v704.9c0 35.2 28.8 64.1 64.1 64.1 35.2 0 64.1-28.8 64.1-64.1V158.8c0-35.3-28.8-64.1-64.1-64.1z m160.2 0c-35.2 0-64.1 28.8-64.1 64.1v704.9c0 35.2 28.8 64.1 64.1 64.1 35.2 0 64.1-28.8 64.1-64.1V158.8c0-35.3-28.8-64.1-64.1-64.1z m160.2 0c-35.2 0-64.1 28.8-64.1 64.1v704.9c0 35.2 28.8 64.1 64.1 64.1 35.2 0 64.1-28.8 64.1-64.1V158.8c0-35.3-28.8-64.1-64.1-64.1zM32 351c0 35.2 28.8 64.1 64.1 64.1V286.9C60.9 286.9 32 315.8 32 351z m0 352.5c0 35.2 28.8 64.1 64.1 64.1V639.4c-35.2 0-64.1 28.8-64.1 64.1z m897.2-64.1v128.2c35.2 0 64.1-28.8 64.1-64.1-0.1-35.3-28.9-64.1-64.1-64.1z m0-352.5v128.2c35.2 0 64.1-28.8 64.1-64.1-0.1-35.2-28.9-64.1-64.1-64.1z" p-id="7620" fill="#2c2c2c"></path></svg>