<?xml version="1.0" standalone="no"?><!DOCTYPE svg PUBLIC "-//W3C//DTD SVG 1.1//EN" "http://www.w3.org/Graphics/SVG/1.1/DTD/svg11.dtd"><svg t="1626244770948" class="icon" viewBox="0 0 1462 1024" version="1.1" xmlns="http://www.w3.org/2000/svg" p-id="5896" xmlns:xlink="http://www.w3.org/1999/xlink" width="285.546875" height="200"><defs><style type="text/css"></style></defs><path d="M987.428571 987.428571a36.571429 36.571429 0 1 1-73.142857 0v-219.428571h-329.142857v219.428571a36.571429 36.571429 0 1 1-73.142857 0v-219.428571H102.765714a73.142857 73.142857 0 0 1-72.777143-65.865143L18.285714 585.142857A1925.229714 1925.229714 0 0 1 16.64 219.282286l13.897143-152.758857A73.142857 73.142857 0 0 1 103.350857 0h1256.155429a73.142857 73.142857 0 0 1 72.813714 66.523429l13.897143 152.758857A1925.229714 1925.229714 0 0 1 1444.571429 585.142857l-11.702858 116.992A73.142857 73.142857 0 0 1 1360.091429 768H987.428571v219.428571z m338.651429-914.285714H136.777143a36.571429 36.571429 0 0 0-36.425143 33.28l-10.861714 119.478857a1852.086857 1852.086857 0 0 0-1.353143 320l2.925714 31.963429 8.411429 84.077714a36.571429 36.571429 0 0 0 36.388571 32.914286H438.857143v-146.285714a73.142857 73.142857 0 0 1 73.142857-73.142858h475.428571a73.142857 73.142857 0 0 1 73.142858 73.142858v146.285714h266.422857a36.571429 36.571429 0 0 0 36.388571-32.914286l8.411429-84.077714c10.605714-106.386286 12.068571-213.430857 4.205714-320l-2.633143-31.963429-10.861714-119.515428A36.571429 36.571429 0 0 0 1326.08 73.142857zM950.857143 548.571429H548.571429a36.571429 36.571429 0 0 0-36.571429 36.571428v109.714286h475.428571v-109.714286a36.571429 36.571429 0 0 0-36.571428-36.571428zM237.714286 182.857143a54.857143 54.857143 0 1 1 0 109.714286 54.857143 54.857143 0 0 1 0-109.714286z m182.857143 0a54.857143 54.857143 0 1 1 0 109.714286 54.857143 54.857143 0 0 1 0-109.714286z" fill="#202020" p-id="5897"></path></svg>