<?xml version="1.0" standalone="no"?><!DOCTYPE svg PUBLIC "-//W3C//DTD SVG 1.1//EN" "http://www.w3.org/Graphics/SVG/1.1/DTD/svg11.dtd"><svg t="1626244866777" class="icon" viewBox="0 0 1024 1024" version="1.1" xmlns="http://www.w3.org/2000/svg" p-id="8155" xmlns:xlink="http://www.w3.org/1999/xlink" width="200" height="200"><defs><style type="text/css"></style></defs><path d="M251.767467 684.396089h555.763484c81.847182 0 148.202382 66.346098 148.202382 148.202382v24.712533c0 81.847182-66.346098 148.19328-148.19328 148.19328h-592.827733c-81.847182 0-148.202382-66.346098-148.202382-148.202382v-61.749475c0-41.132942 22.345956-77.059413 55.559964-96.274205 11.22304-6.489884 18.541227-18.067911 18.541227-31.038578v-45.593031c0-20.461796 16.584249-37.046044 37.046044-37.046044h0.009103c20.461796 0 37.046044 16.584249 37.046044 37.046044v24.703431c0.009102 20.461796 16.593351 37.046044 37.055147 37.046045z m-37.055147 74.110293c-40.923591 0-74.101191 33.1776-74.101191 74.101191v24.703431c0 40.923591 33.168498 74.092089 74.092089 74.092089h592.818631c40.923591 0 74.101191-33.1776 74.101191-74.101191v-24.703431c0-40.923591-33.168498-74.092089-74.092089-74.092089H214.71232z m555.754382 49.388658h0.009102c20.461796 0 37.046044 16.584249 37.046045 37.046044v0.009103c0 20.461796-16.584249 37.046044-37.046045 37.046044h-0.009102c-20.461796 0-37.046044-16.584249-37.046044-37.046044v-0.009103c0-20.452693 16.584249-37.046044 37.046044-37.046044zM102.281671 241.026844c-15.719538-14.199467-16.411307-38.711751-1.438151-53.684906C205.874062 82.402418 350.917973 17.494471 511.117084 17.494471s305.243022 64.898844 410.273565 169.847467c14.982258 14.973156 14.281387 39.48544-1.429049 53.684906-14.681884 13.261938-37.091556 12.561067-51.090773-1.410844-91.613867-91.468231-218.080142-148.020338-357.753743-148.020338-139.6736 0-266.139876 56.552107-357.74464 148.011236-13.999218 13.981013-36.408889 14.672782-51.090773 1.419946z m165.332765 149.331058c-16.238364-14.66368-16.183751-40.013369-0.145636-54.904604 63.915804-59.355591 149.549511-95.655253 243.657387-95.655254 94.107876 0 179.73248 36.299662 243.657386 95.655254 16.038116 14.891236 16.092729 40.240924-0.145635 54.904604l-0.009102 0.009102c-14.208569 12.834133-35.899164 12.770418-49.907485-0.282168-50.726684-47.26784-118.784-76.1856-193.586062-76.1856s-142.859378 28.91776-193.586062 76.1856c-14.026524 13.052587-35.71712 13.116302-49.934791 0.273066z m166.998471 150.832925c-17.967787-16.22016-16.110933-45.529316 4.387271-58.390756 20.898702-13.116302 45.620338-20.698453 72.116906-20.698453 26.496569 0 51.218204 7.582151 72.116907 20.698453 20.498204 12.870542 22.355058 42.170596 4.387271 58.390756l-0.063715 0.054613c-12.115058 10.940871-30.046436 12.815929-43.918223 4.205227-9.448107-5.870933-20.598329-9.25696-32.531342-9.25696-11.942116 0-23.092338 3.386027-32.531342 9.25696-13.862684 8.610702-31.803164 6.735644-43.918222-4.205227l-0.045511-0.054613z m-30.22848-27.288463" fill="#000000" p-id="8156"></path></svg>