<?xml version="1.0" standalone="no"?><!DOCTYPE svg PUBLIC "-//W3C//DTD SVG 1.1//EN" "http://www.w3.org/Graphics/SVG/1.1/DTD/svg11.dtd"><svg t="1626244901994" class="icon" viewBox="0 0 1024 1024" version="1.1" xmlns="http://www.w3.org/2000/svg" p-id="9127" xmlns:xlink="http://www.w3.org/1999/xlink" width="200" height="200"><defs><style type="text/css"></style></defs><path d="M505.6 992c-54.4 0-118.4-9.6-172.8-41.6-92.8-51.2-147.2-153.6-140.8-259.2 6.4-89.6 70.4-172.8 108.8-220.8 12.8-16 22.4-28.8 25.6-35.2 28.8-57.6 22.4-112 19.2-140.8-3.2-16-3.2-28.8 9.6-32l6.4-3.2 9.6 3.2c19.2 9.6 48 99.2 54.4 156.8 3.2 22.4 0 51.2-6.4 76.8 41.6-70.4 64-137.6 60.8-195.2-3.2-80-70.4-153.6-102.4-192-19.2-19.2-25.6-28.8-19.2-41.6l6.4-9.6 12.8 3.2c22.4 6.4 256 118.4 329.6 291.2 25.6 60.8 48 166.4 16 320 19.2-22.4 35.2-44.8 51.2-70.4 19.2-41.6 32-86.4 35.2-134.4l32-3.2c0 3.2 51.2 185.6 9.6 313.6-38.4 118.4-156.8 176-214.4 192-12.8 9.6-67.2 22.4-131.2 22.4z m-128-624c-3.2 25.6-9.6 54.4-25.6 86.4-6.4 9.6-16 22.4-28.8 41.6-35.2 44.8-96 121.6-102.4 201.6-6.4 92.8 41.6 182.4 121.6 227.2 112 64 259.2 25.6 275.2 22.4 41.6-12.8 160-64 192-172.8 22.4-70.4 16-153.6 6.4-217.6-6.4 22.4-12.8 44.8-22.4 64-25.6 44.8-60.8 86.4-96 118.4l-12.8 12.8-9.6-16c-3.2-6.4-3.2-9.6 0-22.4 48-172.8 25.6-284.8 0-348.8-48-112-172.8-198.4-249.6-243.2 35.2 44.8 76.8 108.8 80 176 3.2 83.2-35.2 179.2-108.8 275.2-3.2 3.2-12.8 16-25.6 9.6s-9.6-19.2-3.2-44.8c9.6-28.8 22.4-80 19.2-118.4 0-12.8-3.2-32-9.6-51.2z" fill="#2c2c2c" p-id="9128"></path></svg>