<?xml version="1.0" standalone="no"?><!DOCTYPE svg PUBLIC "-//W3C//DTD SVG 1.1//EN" "http://www.w3.org/Graphics/SVG/1.1/DTD/svg11.dtd"><svg t="1626244690053" class="icon" viewBox="0 0 1024 1024" version="1.1" xmlns="http://www.w3.org/2000/svg" p-id="3313" xmlns:xlink="http://www.w3.org/1999/xlink" width="200" height="200"><defs><style type="text/css"></style></defs><path d="M896 0a51.2 51.2 0 0 1 51.2 51.2v947.2a25.6 25.6 0 0 1-51.2 0v-51.2H128v51.2a25.6 25.6 0 0 1-51.2 0V51.2a51.2 51.2 0 0 1 51.2-51.2h768zM384 742.4H128v128a25.6 25.6 0 0 0 25.6 25.6h204.8a25.6 25.6 0 0 0 25.6-25.6v-128z m512 0H435.2v128a25.6 25.6 0 0 0 25.6 25.6h409.6a25.6 25.6 0 0 0 25.6-25.6v-128zM281.6 793.6a25.6 25.6 0 0 1 0 51.2H230.4a25.6 25.6 0 0 1 0-51.2h51.2z m409.6 0a25.6 25.6 0 0 1 0 51.2h-76.8a25.6 25.6 0 0 1 0-51.2h76.8zM358.4 51.2H153.6a25.6 25.6 0 0 0-25.6 25.6v614.4h256V76.8a25.6 25.6 0 0 0-25.6-25.6z m512 0H460.8a25.6 25.6 0 0 0-25.6 25.6v614.4h460.8V76.8a25.6 25.6 0 0 0-25.6-25.6zM307.2 307.2a25.6 25.6 0 0 1 25.6 25.6v51.2a25.6 25.6 0 0 1-51.2 0v-51.2a25.6 25.6 0 0 1 25.6-25.6z m204.8 0a25.6 25.6 0 0 1 25.6 25.6v51.2a25.6 25.6 0 0 1-51.2 0v-51.2a25.6 25.6 0 0 1 25.6-25.6z" fill="#202020" p-id="3314"></path></svg>