<?xml version="1.0" standalone="no"?><!DOCTYPE svg PUBLIC "-//W3C//DTD SVG 1.1//EN" "http://www.w3.org/Graphics/SVG/1.1/DTD/svg11.dtd"><svg t="1626313580195" class="icon" viewBox="0 0 1024 1024" version="1.1" xmlns="http://www.w3.org/2000/svg" p-id="2760" xmlns:xlink="http://www.w3.org/1999/xlink" width="200" height="200"><defs><style type="text/css"></style></defs><path d="M628.364 644.655c0-20.946 9.309-30.255 9.309-30.255 6.982-6.982 9.309-18.618 2.327-27.927-4.655-9.31-16.29-13.964-27.927-9.31-18.618 6.982-32.582 13.964-44.218 23.273-25.6-58.181-74.473-83.781-76.8-83.781-6.982-4.655-18.619-2.328-25.6 2.327-6.982 4.654-9.31 13.963-9.31 23.273 4.655 27.927 4.655 48.872 2.328 62.836-20.946-16.291-44.218-25.6-48.873-25.6-9.31-2.327-18.618 0-25.6 6.982-6.982 6.982-6.982 18.618-2.327 25.6 0 0 6.982 11.636 6.982 34.909 0 4.654-2.328 9.309-2.328 13.963-2.327 11.637-6.982 25.6-6.982 46.546 0 74.473 58.182 132.654 132.655 132.654 72.145 0 132.655-58.181 132.655-132.654 0-20.946-6.982-32.582-9.31-41.891-4.654-6.982-6.981-11.636-6.981-20.945zM512 791.273c-48.873 0-86.11-37.237-86.11-86.11 0-16.29 2.328-25.6 4.655-34.908 2.328-9.31 4.655-16.291 4.655-25.6v-2.328c4.655 4.655 6.982 6.982 9.31 11.637 2.326 6.981 9.308 11.636 16.29 11.636 6.982 2.327 13.964-2.327 20.945-6.982 2.328-2.327 23.273-25.6 25.6-72.145 11.637 13.963 23.273 34.909 27.928 60.509 2.327 9.309 9.309 16.29 18.618 18.618 9.309 2.327 18.618-4.655 23.273-11.636 0 0 0-2.328 2.327-4.655 0 16.291 6.982 27.927 9.309 34.91 2.327 6.981 4.655 11.636 4.655 20.945 4.654 48.872-34.91 86.109-81.455 86.109z" p-id="2761"></path><path d="M814.545 0h-605.09C144.29 0 93.09 51.2 93.09 116.364V861.09c0 65.164 51.2 116.364 116.364 116.364h69.818v23.272c0 13.964 9.309 23.273 23.272 23.273s23.273-9.31 23.273-23.273v-23.272h46.546v23.272c0 13.964 9.309 23.273 23.272 23.273s23.273-9.31 23.273-23.273v-23.272h186.182v23.272c0 13.964 9.309 23.273 23.273 23.273s23.272-9.31 23.272-23.273v-23.272h46.546v23.272c0 13.964 9.309 23.273 23.273 23.273s23.272-9.31 23.272-23.273v-23.272h69.818c65.164 0 116.364-51.2 116.364-116.364V116.364C930.91 51.2 879.71 0 814.545 0z m69.819 861.09c0 39.565-30.255 69.82-69.819 69.82h-605.09c-39.564 0-69.819-30.255-69.819-69.82V116.365c0-39.564 30.255-69.819 69.819-69.819h605.09c39.564 0 69.819 30.255 69.819 69.819V861.09z" p-id="2762"></path><path d="M418.91 279.273h186.18c13.965 0 23.274-9.31 23.274-23.273v-93.09c0-13.965-9.31-23.274-23.273-23.274H418.909c-13.964 0-23.273 9.31-23.273 23.273V256c0 13.964 9.31 23.273 23.273 23.273z m23.272-93.091h139.636v46.545H442.182v-46.545z m279.273-46.546h-23.273c-13.964 0-23.273 9.31-23.273 23.273s9.31 23.273 23.273 23.273h23.273c13.963 0 23.272-9.31 23.272-23.273s-9.309-23.273-23.272-23.273z m0 93.091h-23.273c-13.964 0-23.273 9.31-23.273 23.273s9.31 23.273 23.273 23.273h23.273c13.963 0 23.272-9.31 23.272-23.273s-9.309-23.273-23.272-23.273z m-395.637-93.09h-23.273c-13.963 0-23.272 9.308-23.272 23.272s9.309 23.273 23.272 23.273h23.273c13.964 0 23.273-9.31 23.273-23.273s-9.31-23.273-23.273-23.273z m0 93.09h-23.273c-13.963 0-23.272 9.31-23.272 23.273s9.309 23.273 23.272 23.273h23.273c13.964 0 23.273-9.31 23.273-23.273s-9.31-23.273-23.273-23.273z" p-id="2763"></path></svg>